<?xml version="1.0" encoding="UTF-8"?>
<svg version="1.1" xmlns="http://www.w3.org/2000/svg" width="465" height="301">
<path d="M0 0 C153.45 0 306.9 0 465 0 C465 99.33 465 198.66 465 301 C311.55 301 158.1 301 0 301 C0 201.67 0 102.34 0 0 Z " fill="#DDDDDD" transform="translate(0,0)"/>
<path d="M0 0 C1.83794128 -0.01485695 1.83794128 -0.01485695 3.7130127 -0.03001404 C5.06796365 -0.02577602 6.42291363 -0.02121817 7.77786255 -0.01637268 C9.20712824 -0.02207598 10.63638937 -0.02904009 12.06564331 -0.03717041 C15.94591645 -0.05512348 19.82596371 -0.05392923 23.70626593 -0.04822803 C26.9467857 -0.04513865 30.18726192 -0.05122596 33.4277755 -0.05726677 C41.07413038 -0.07131801 48.72037355 -0.06974632 56.36672974 -0.05836487 C64.25117899 -0.04688823 72.13528791 -0.06095014 80.0196923 -0.08776134 C86.79180956 -0.10992671 93.56382005 -0.11655369 100.335971 -0.11068493 C104.37936622 -0.1073155 108.42254338 -0.10972911 112.46590805 -0.12693596 C116.26962935 -0.14241606 120.07284728 -0.13843823 123.87654877 -0.11963081 C125.27050557 -0.11594754 126.66449975 -0.11904589 128.05842209 -0.1295166 C141.21027592 -0.22074584 141.21027592 -0.22074584 146.01663208 4.38768005 C148.10753536 7.52403498 148.26885286 8.24394272 148.28405762 11.81489563 C148.29685257 13.17333588 148.29685257 13.17333588 148.30990601 14.55921936 C148.30854645 16.04607742 148.30854645 16.04607742 148.30715942 17.56297302 C148.31387665 18.60876526 148.32059387 19.6545575 148.32751465 20.73204041 C148.34655245 24.19803078 148.35042179 27.66382811 148.35256958 31.12986755 C148.35899352 33.53498922 148.36572157 35.9401101 148.3727417 38.3452301 C148.38472898 43.39081128 148.38842103 48.43632392 148.38723755 53.48191833 C148.38703429 59.95082837 148.41433766 66.41929943 148.44878197 72.88810539 C148.4710074 77.8569084 148.47507642 82.82560504 148.4740181 87.79445267 C148.47638058 90.1795058 148.48524029 92.56456158 148.50068283 94.94956589 C148.52025386 98.2845569 148.51453904 101.61859198 148.50247192 104.95359802 C148.51371094 105.94078827 148.52494995 106.92797852 148.53652954 107.94508362 C148.49712263 112.22572403 148.43648642 114.69801817 146.17376709 118.41481018 C142.35319549 121.90902383 140.24067824 122.63911212 135.15351868 122.65510559 C133.92959915 122.66363556 132.70567963 122.67216553 131.44467163 122.68095398 C130.08608996 122.68025493 128.72750839 122.67933186 127.368927 122.6782074 C125.93981067 122.68419103 124.51069757 122.6909962 123.08158875 122.69856262 C119.19717265 122.71624876 115.31284464 122.72091915 111.42839217 122.72219419 C108.18544435 122.72409272 104.94251707 122.7314499 101.69957715 122.73853838 C94.04703216 122.7548306 86.39453422 122.75970666 78.74197388 122.75828552 C70.8501751 122.7570845 62.95864999 122.77817645 55.06692046 122.80977285 C48.29058839 122.83593588 41.51434568 122.84665278 34.7379635 122.8453747 C30.691185 122.84486498 26.64464954 122.85055307 22.59792137 122.8717308 C18.79013119 122.89111331 14.98281583 122.89123796 11.17500877 122.87669754 C9.77943223 122.87460818 8.38382597 122.87931805 6.98830032 122.89141846 C-4.85519804 122.98743855 -4.85519804 122.98743855 -8.67311096 120.66981506 C-13.39369167 116.00669632 -14.3274346 112.72385611 -14.40106201 106.23225403 C-14.39656036 105.28717987 -14.39205872 104.34210571 -14.38742065 103.36839294 C-14.39428391 102.36292923 -14.40114716 101.35746552 -14.40821838 100.3215332 C-14.42650554 97.0009902 -14.42264602 93.68091881 -14.41696167 90.3603363 C-14.42152254 88.05014899 -14.42682783 85.73996303 -14.43284607 83.42977905 C-14.44178096 78.58862292 -14.43934963 73.74763171 -14.42941284 68.90647888 C-14.41792297 62.70448989 -14.43813357 56.50307024 -14.46732998 50.30115604 C-14.48568146 45.53046048 -14.48540157 40.75990161 -14.47969246 35.98917961 C-14.47953912 33.7026483 -14.48559414 31.41610781 -14.49798393 29.12961006 C-14.51287165 25.93149793 -14.50223228 22.73444095 -14.4850769 19.53636169 C-14.49474487 18.59331177 -14.50441284 17.65026184 -14.51437378 16.67863464 C-14.45159879 11.08619647 -13.79361563 7.77250078 -9.98336792 3.38768005 C-6.69176796 0.33736629 -4.44042549 0.01012958 0 0 Z " fill="#BABABA" transform="translate(164.98336791992188,91.61231994628906)"/>
<path d="M0 0 C4.73948739 0.14362083 6.91666451 2.40521503 10 5.66796875 C12.79010921 8.92127968 15.37612004 12.31922843 17.95141602 15.74267578 C21.18449458 20.01749044 24.60285451 24.08644345 28.125 28.125 C31.77051611 32.34051047 35.35771193 36.57683994 38.75 41 C39.70132813 42.2375 39.70132813 42.2375 40.671875 43.5 C42.32033253 46.60297888 42.47106686 48.53294788 42 52 C40.46256781 54.01490957 39.57359758 54.88826969 37.06188202 55.37752342 C36.32373512 55.3786545 35.58558823 55.37978558 34.82507324 55.38095093 C33.97545517 55.3894104 33.1258371 55.39786987 32.25047302 55.40658569 C31.32154739 55.400513 30.39262177 55.39444031 29.43554688 55.38818359 C28.45481705 55.39344055 27.47408722 55.39869751 26.46363831 55.40411377 C23.21518117 55.4173397 19.9672123 55.40856634 16.71875 55.3984375 C14.46577866 55.40045748 12.21280796 55.40336829 9.95983887 55.40713501 C5.23536969 55.41156189 0.51107053 55.40511549 -4.21337891 55.39111328 C-10.27663963 55.37402135 -16.339502 55.38386057 -22.40274811 55.40183067 C-27.05579646 55.4126586 -31.70874998 55.4092267 -36.36180115 55.4014473 C-38.59777371 55.39944255 -40.83375481 55.40191413 -43.06971741 55.40888596 C-46.19189336 55.41648401 -49.31341946 55.40491898 -52.43554688 55.38818359 C-53.82893532 55.39729263 -53.82893532 55.39729263 -55.25047302 55.40658569 C-56.10009109 55.39812622 -56.94970917 55.38966675 -57.82507324 55.38095093 C-58.56322014 55.37981985 -59.30136703 55.37868877 -60.06188202 55.37752342 C-62.56009424 54.89089999 -63.42812442 53.9632041 -65 52 C-65.9375 49.6875 -65.9375 49.6875 -66 47 C-62.94308548 41.86226496 -59.1150696 37.34845626 -55.3125 32.75 C-54.14022722 31.32952614 -52.96957252 29.90771489 -51.80078125 28.484375 C-51.28684814 27.86272461 -50.77291504 27.24107422 -50.2434082 26.60058594 C-48.92243795 25.00783118 -48.92243795 25.00783118 -48 23 C-47.34 23 -46.68 23 -46 23 C-45.7525 22.443125 -45.505 21.88625 -45.25 21.3125 C-43.74313162 18.52479349 -42.1818574 16.30653497 -40 14 C-37.36328125 13.35546875 -37.36328125 13.35546875 -35 13 C-34.34773438 13.86625 -33.69546875 14.7325 -33.0234375 15.625 C-32.141593 16.75075894 -31.25872637 17.87571774 -30.375 19 C-29.94832031 19.57234375 -29.52164063 20.1446875 -29.08203125 20.734375 C-27.63059689 22.63213364 -27.63059689 22.63213364 -25 25 C-21.77251086 25.50307532 -21.77251086 25.50307532 -19 25 C-18.66742188 24.20335937 -18.66742188 24.20335937 -18.328125 23.390625 C-16.53585697 20.16454255 -14.16411996 17.51709204 -11.75 14.75 C-7.63109362 9.96360019 -3.71064131 5.11466775 0 0 Z " fill="#DCDCDC" transform="translate(244,135)"/>
<path d="M0 0 C4.09131007 0.9331058 5.57237355 2.17306228 8.2265625 5.5078125 C9.0193894 8.68486521 8.98732943 11.32642351 8.2265625 14.5078125 C5.70288225 18.17862014 4.05620367 19.26646234 -0.2109375 20.5078125 C-4.32676897 20.5078125 -6.37572841 19.79929073 -9.7734375 17.5078125 C-11.70893563 15.04445125 -11.80381679 13.27345799 -12.2109375 10.1328125 C-11.30811131 2.65225261 -7.25326283 -0.55794329 0 0 Z " fill="#DBDBDB" transform="translate(211.7734375,112.4921875)"/>
</svg>
